<svg xmlns="http://www.w3.org/2000/svg" xmlns:xlink="http://www.w3.org/1999/xlink" width="547" height="100" viewBox="0 0 547 100"><defs><style>.a{clip-path:url(#l);}.b{fill:#168ba8;}.c{fill:#308c61;}.d{fill:#77c300;}.e{fill:#f2f2f2;}.f{filter:url(#i);}.g{filter:url(#g);}.h{filter:url(#e);}.i{filter:url(#c);}.j{filter:url(#a);}</style><filter id="a" x="-9" y="-6" width="125" height="118" filterUnits="userSpaceOnUse"><feOffset dy="3" input="SourceAlpha"/><feGaussianBlur stdDeviation="3" result="b"/><feFlood flood-opacity="0.271"/><feComposite operator="in" in2="b"/><feComposite in="SourceGraphic"/></filter><filter id="c" x="101" y="-6" width="125" height="118" filterUnits="userSpaceOnUse"><feOffset dy="3" input="SourceAlpha"/><feGaussianBlur stdDeviation="3" result="d"/><feFlood flood-opacity="0.271"/><feComposite operator="in" in2="d"/><feComposite in="SourceGraphic"/></filter><filter id="e" x="212" y="-6" width="124" height="118" filterUnits="userSpaceOnUse"><feOffset dy="3" input="SourceAlpha"/><feGaussianBlur stdDeviation="3" result="f"/><feFlood flood-opacity="0.271"/><feComposite operator="in" in2="f"/><feComposite in="SourceGraphic"/></filter><filter id="g" x="321" y="-6" width="125" height="118" filterUnits="userSpaceOnUse"><feOffset dy="3" input="SourceAlpha"/><feGaussianBlur stdDeviation="3" result="h"/><feFlood flood-opacity="0.271"/><feComposite operator="in" in2="h"/><feComposite in="SourceGraphic"/></filter><filter id="i" x="431" y="-6" width="125" height="118" filterUnits="userSpaceOnUse"><feOffset dy="3" input="SourceAlpha"/><feGaussianBlur stdDeviation="3" result="j"/><feFlood flood-opacity="0.271"/><feComposite operator="in" in2="j"/><feComposite in="SourceGraphic"/></filter><clipPath id="l"><rect width="547" height="100"/></clipPath></defs><g id="k" class="a"><g transform="translate(-26 -36)"><g class="j" transform="matrix(1, 0, 0, 1, 26, 36)"><rect class="b" width="107" height="100" rx="4"/></g><g class="i" transform="matrix(1, 0, 0, 1, 26, 36)"><rect class="c" width="107" height="100" rx="4" transform="translate(110)"/></g><g class="h" transform="matrix(1, 0, 0, 1, 26, 36)"><rect class="d" width="106" height="100" rx="4" transform="translate(221)"/></g><g class="g" transform="matrix(1, 0, 0, 1, 26, 36)"><rect class="e" width="107" height="100" rx="4" transform="translate(330)"/></g><g class="f" transform="matrix(1, 0, 0, 1, 26, 36)"><rect width="107" height="100" rx="4" transform="translate(440)"/></g></g></g></svg>